<svg width="36" height="36" viewBox="0 0 36 36" fill="none" xmlns="http://www.w3.org/2000/svg">
<path d="M12 24.75C12.6437 23.75 14.7586 21.75 18.069 21.75C21.3793 21.75 23.4023 23.75 24 24.75" stroke="#1F1F1F" stroke-linecap="round" stroke-linejoin="round"/>
<circle cx="18" cy="18" r="14.5" stroke="#1F1F1F"/>
<mask id="path-3-inside-1_197_2067" fill="white">
<path d="M22.875 14.2499C23.9105 14.2499 24.75 15.0894 24.75 16.125C24.75 17.1605 23.9105 18 22.875 18C21.8395 18 21 17.1605 21 16.125C21 15.0894 21.8395 14.2499 22.875 14.2499Z"/>
</mask>
<path d="M22.875 15.2499C23.3582 15.2499 23.75 15.6417 23.75 16.125L25.75 16.125C25.75 14.5371 24.4628 13.2499 22.875 13.2499L22.875 15.2499ZM23.75 16.125C23.75 16.6083 23.3582 17 22.875 17L22.875 19C24.4628 19 25.75 17.7128 25.75 16.125L23.75 16.125ZM22.875 17C22.3918 17 22 16.6083 22 16.125L20 16.125C20 17.7128 21.2872 19 22.875 19L22.875 17ZM22 16.125C22 15.6417 22.3918 15.2499 22.875 15.2499L22.875 13.2499C21.2872 13.2499 20 14.5371 20 16.125L22 16.125Z" fill="#1F1F1F" mask="url(#path-3-inside-1_197_2067)"/>
<mask id="path-5-inside-2_197_2067" fill="white">
<path d="M13.1249 14.2499C14.1604 14.2499 14.9999 15.0894 14.9999 16.125C14.9999 17.1605 14.1604 18 13.1249 18C12.0894 18 11.25 17.1605 11.25 16.125C11.25 15.0894 12.0894 14.2499 13.1249 14.2499Z"/>
</mask>
<path d="M13.1249 15.2499C13.6081 15.2499 13.9999 15.6417 13.9999 16.125L15.9999 16.125C15.9999 14.5372 14.7128 13.2499 13.1249 13.2499L13.1249 15.2499ZM13.9999 16.125C13.9999 16.6083 13.6081 17 13.1249 17L13.1249 19C14.7128 19 15.9999 17.7128 15.9999 16.125L13.9999 16.125ZM13.1249 17C12.6418 17 12.25 16.6083 12.25 16.125L10.25 16.125C10.25 17.7128 11.5371 19 13.1249 19L13.1249 17ZM12.25 16.125C12.25 15.6417 12.6418 15.2499 13.1249 15.2499L13.1249 13.2499C11.5371 13.2499 10.25 14.5372 10.25 16.125L12.25 16.125Z" fill="#1F1F1F" mask="url(#path-5-inside-2_197_2067)"/>
<path d="M12.375 11.25L16.375 14.375" stroke="#1F1F1F" stroke-linecap="round" stroke-linejoin="round"/>
<path d="M23.75 11.25L19.75 14.375" stroke="#1F1F1F" stroke-linecap="round" stroke-linejoin="round"/>
</svg>
