<svg width="32" height="32" viewBox="0 0 32 32" fill="none" xmlns="http://www.w3.org/2000/svg">
<path d="M10.4 22.3C11.0008 21.3667 12.9747 19.5 16.0644 19.5C19.154 19.5 21.0422 21.3667 21.6 22.3" stroke="#1F1F1F" stroke-linecap="round" stroke-linejoin="round"/>
<circle cx="16" cy="16" r="13.5" stroke="#1F1F1F"/>
<mask id="path-3-inside-1_197_2067" fill="white">
<path d="M20.55 12.4999C21.5165 12.4999 22.3 13.2835 22.3 14.25C22.3 15.2165 21.5165 16 20.55 16C19.5836 16 18.8 15.2165 18.8 14.25C18.8 13.2835 19.5836 12.4999 20.55 12.4999Z"/>
</mask>
<path d="M20.55 13.4999C20.9642 13.4999 21.3 13.8357 21.3 14.25L23.3 14.25C23.3 12.7312 22.0688 11.4999 20.55 11.4999L20.55 13.4999ZM21.3 14.25C21.3 14.6642 20.9642 15 20.55 15L20.55 17C22.0688 17 23.3 15.7688 23.3 14.25L21.3 14.25ZM20.55 15C20.1359 15 19.8 14.6642 19.8 14.25L17.8 14.25C17.8 15.7688 19.0312 17 20.55 17L20.55 15ZM19.8 14.25C19.8 13.8357 20.1359 13.4999 20.55 13.4999L20.55 11.4999C19.0312 11.4999 17.8 12.7312 17.8 14.25L19.8 14.25Z" fill="#1F1F1F" mask="url(#path-3-inside-1_197_2067)"/>
<mask id="path-5-inside-2_197_2067" fill="white">
<path d="M11.4499 12.4999C12.4164 12.4999 13.1998 13.2835 13.1998 14.25C13.1998 15.2165 12.4164 16 11.4499 16C10.4834 16 9.69995 15.2165 9.69995 14.25C9.69995 13.2835 10.4834 12.4999 11.4499 12.4999Z"/>
</mask>
<path d="M11.4499 13.4999C11.864 13.4999 12.1998 13.8357 12.1998 14.25L14.1998 14.25C14.1998 12.7312 12.9687 11.4999 11.4499 11.4999L11.4499 13.4999ZM12.1998 14.25C12.1998 14.6642 11.864 15 11.4499 15L11.4499 17C12.9687 17 14.1998 15.7687 14.1998 14.25L12.1998 14.25ZM11.4499 15C11.0358 15 10.7 14.6642 10.7 14.25L8.69995 14.25C8.69995 15.7687 9.9311 17 11.4499 17L11.4499 15ZM10.7 14.25C10.7 13.8357 11.0358 13.4999 11.4499 13.4999L11.4499 11.4999C9.9311 11.4999 8.69995 12.7312 8.69995 14.25L10.7 14.25Z" fill="#1F1F1F" mask="url(#path-5-inside-2_197_2067)"/>
<path d="M10.75 9.69995L14.4833 12.6166" stroke="#1F1F1F" stroke-linecap="round" stroke-linejoin="round"/>
<path d="M21.3667 9.69995L17.6334 12.6166" stroke="#1F1F1F" stroke-linecap="round" stroke-linejoin="round"/>
</svg>
