<svg width="36" height="36" viewBox="0 0 36 36" fill="none" xmlns="http://www.w3.org/2000/svg">
<mask id="path-1-inside-1_197_2206" fill="white">
<path fill-rule="evenodd" clip-rule="evenodd" d="M0 23C0 26.866 3.13401 30 7 30H23C26.866 30 30 26.866 30 23C30 19.134 26.866 16 23 16C22.2924 16 21.6093 16.105 20.9655 16.3003C20.6144 12.7628 17.6298 10 14 10C10.4734 10 7.55592 12.6079 7.07084 16.0004C7.04725 16.0001 7.02364 16 7 16C3.13401 16 0 19.134 0 23Z"/>
</mask>
<path d="M20.9655 16.3003L19.9704 16.399L20.0906 17.6106L21.2557 17.2572L20.9655 16.3003ZM7.07084 16.0004L7.06093 17.0003L7.93679 17.009L8.06077 16.1419L7.07084 16.0004ZM7 29C3.68629 29 1 26.3137 1 23H-1C-1 27.4183 2.58172 31 7 31V29ZM23 29H7V31H23V29ZM29 23C29 26.3137 26.3137 29 23 29V31C27.4183 31 31 27.4183 31 23H29ZM23 17C26.3137 17 29 19.6863 29 23H31C31 18.5817 27.4183 15 23 15V17ZM21.2557 17.2572C21.8065 17.0902 22.3918 17 23 17V15C22.193 15 21.4121 15.1198 20.6752 15.3433L21.2557 17.2572ZM14 11C17.1107 11 19.6695 13.368 19.9704 16.399L21.9606 16.2015C21.5592 12.1576 18.149 9 14 9V11ZM8.06077 16.1419C8.47642 13.235 10.9781 11 14 11V9C9.96875 9 6.63542 11.9808 6.08091 15.8588L8.06077 16.1419ZM7 17C7.02028 17 7.04059 17.0001 7.06093 17.0003L7.08074 15.0004C7.05392 15.0001 7.027 15 7 15V17ZM1 23C1 19.6863 3.68629 17 7 17V15C2.58172 15 -1 18.5817 -1 23H1Z" fill="#1F1F1F" mask="url(#path-1-inside-1_197_2206)"/>
<path fill-rule="evenodd" clip-rule="evenodd" d="M25.9704 12.399L26.0906 13.6106L27.2557 13.2572C27.8065 13.0902 28.3918 13 29 13C32.3137 13 35 15.6863 35 19C35 22.0691 32.6957 24.6 29.7228 24.9569C29.6189 25.3147 29.4871 25.6607 29.33 25.9924C33.0428 25.8201 36 22.7554 36 19C36 15.134 32.866 12 29 12C28.6423 12 28.2908 12.0268 27.9475 12.0786C27.6117 12.1292 27.2838 12.2037 26.9655 12.3003C26.9319 11.9619 26.8743 11.6307 26.7942 11.3082C26.0376 8.25958 23.2827 6 20 6C17.2046 6 14.7919 7.63858 13.67 10.0076C13.7794 10.0026 13.8894 10 14 10C14.263 10 14.5226 10.0145 14.778 10.0427C15.8093 8.22591 17.762 7 20 7C23.1107 7 25.6696 9.36799 25.9704 12.399ZM6.67004 16.0076C6.7794 16.0026 6.88942 16 7.00004 16C7.02368 16 7.04729 16.0001 7.07088 16.0004C7.12418 15.6276 7.20684 15.2643 7.31645 14.9129C7.0694 15.2559 6.85263 15.6221 6.67004 16.0076Z" fill="#1F1F1F"/>
</svg>
