<svg width="38" height="38" viewBox="0 0 38 38" fill="none" xmlns="http://www.w3.org/2000/svg">
<circle cx="19" cy="19" r="14.5" stroke="#1F1F1F"/>
<path d="M15.25 28.375C16.5595 26.1875 20.4554 21.8125 25.5625 21.8125" stroke="#1F1F1F" stroke-linecap="round" stroke-linejoin="round"/>
<mask id="path-3-inside-1_197_2062" fill="white">
<path d="M23.6875 15.2499C24.723 15.2499 25.5625 16.0894 25.5625 17.125C25.5625 18.1605 24.723 19 23.6875 19C22.652 19 21.8125 18.1605 21.8125 17.125C21.8125 16.0894 22.652 15.2499 23.6875 15.2499Z"/>
</mask>
<path d="M23.6875 16.2499C24.1707 16.2499 24.5625 16.6417 24.5625 17.125L26.5625 17.125C26.5625 15.5371 25.2753 14.2499 23.6875 14.2499L23.6875 16.2499ZM24.5625 17.125C24.5625 17.6083 24.1707 18 23.6875 18L23.6875 20C25.2753 20 26.5625 18.7128 26.5625 17.125L24.5625 17.125ZM23.6875 18C23.2043 18 22.8125 17.6083 22.8125 17.125L20.8125 17.125C20.8125 18.7128 22.0997 20 23.6875 20L23.6875 18ZM22.8125 17.125C22.8125 16.6417 23.2043 16.2499 23.6875 16.2499L23.6875 14.2499C22.0997 14.2499 20.8125 15.5371 20.8125 17.125L22.8125 17.125Z" fill="#1F1F1F" mask="url(#path-3-inside-1_197_2062)"/>
<mask id="path-5-inside-2_197_2062" fill="white">
<path d="M14.3124 15.2499C15.3479 15.2499 16.1874 16.0894 16.1874 17.125C16.1874 18.1605 15.3479 19 14.3124 19C13.2769 19 12.4375 18.1605 12.4375 17.125C12.4375 16.0894 13.2769 15.2499 14.3124 15.2499Z"/>
</mask>
<path d="M14.3124 16.2499C14.7956 16.2499 15.1874 16.6417 15.1874 17.125L17.1874 17.125C17.1874 15.5372 15.9003 14.2499 14.3124 14.2499L14.3124 16.2499ZM15.1874 17.125C15.1874 17.6083 14.7956 18 14.3124 18L14.3124 20C15.9003 20 17.1874 18.7128 17.1874 17.125L15.1874 17.125ZM14.3124 18C13.8293 18 13.4375 17.6083 13.4375 17.125L11.4375 17.125C11.4375 18.7128 12.7246 20 14.3124 20L14.3124 18ZM13.4375 17.125C13.4375 16.6417 13.8293 16.2499 14.3124 16.2499L14.3124 14.2499C12.7246 14.2499 11.4375 15.5372 11.4375 17.125L13.4375 17.125Z" fill="#1F1F1F" mask="url(#path-5-inside-2_197_2062)"/>
</svg>
