<svg width="32" height="32" viewBox="0 0 32 32" fill="none" xmlns="http://www.w3.org/2000/svg">
<circle cx="16" cy="16" r="13.5" stroke="#1F1F1F"/>
<path d="M12.5 24.75C13.7222 22.7083 17.3583 18.625 22.125 18.625" stroke="#1F1F1F" stroke-linecap="round" stroke-linejoin="round"/>
<mask id="path-3-inside-1_197_2062" fill="white">
<path d="M20.375 12.4999C21.3415 12.4999 22.125 13.2835 22.125 14.25C22.125 15.2165 21.3415 16 20.375 16C19.4085 16 18.625 15.2165 18.625 14.25C18.625 13.2835 19.4085 12.4999 20.375 12.4999Z"/>
</mask>
<path d="M20.375 13.4999C20.7892 13.4999 21.125 13.8357 21.125 14.25L23.125 14.25C23.125 12.7312 21.8938 11.4999 20.375 11.4999L20.375 13.4999ZM21.125 14.25C21.125 14.6642 20.7892 15 20.375 15L20.375 17C21.8938 17 23.125 15.7688 23.125 14.25L21.125 14.25ZM20.375 15C19.9608 15 19.625 14.6642 19.625 14.25L17.625 14.25C17.625 15.7688 18.8562 17 20.375 17L20.375 15ZM19.625 14.25C19.625 13.8357 19.9608 13.4999 20.375 13.4999L20.375 11.4999C18.8562 11.4999 17.625 12.7312 17.625 14.25L19.625 14.25Z" fill="#1F1F1F" mask="url(#path-3-inside-1_197_2062)"/>
<mask id="path-5-inside-2_197_2062" fill="white">
<path d="M11.6249 12.4999C12.5914 12.4999 13.3749 13.2835 13.3749 14.25C13.3749 15.2165 12.5914 16 11.6249 16C10.6585 16 9.875 15.2165 9.875 14.25C9.875 13.2835 10.6585 12.4999 11.6249 12.4999Z"/>
</mask>
<path d="M11.6249 13.4999C12.0391 13.4999 12.3749 13.8357 12.3749 14.25L14.3749 14.25C14.3749 12.7312 13.1437 11.4999 11.6249 11.4999L11.6249 13.4999ZM12.3749 14.25C12.3749 14.6642 12.0391 15 11.6249 15L11.6249 17C13.1437 17 14.3749 15.7687 14.3749 14.25L12.3749 14.25ZM11.6249 15C11.2108 15 10.875 14.6642 10.875 14.25L8.875 14.25C8.875 15.7687 10.1061 17 11.6249 17L11.6249 15ZM10.875 14.25C10.875 13.8357 11.2108 13.4999 11.6249 13.4999L11.6249 11.4999C10.1061 11.4999 8.875 12.7312 8.875 14.25L10.875 14.25Z" fill="#1F1F1F" mask="url(#path-5-inside-2_197_2062)"/>
</svg>
