<svg width="36" height="36" viewBox="0 0 36 36" fill="none" xmlns="http://www.w3.org/2000/svg">
<mask id="path-1-inside-1_197_2209" fill="white">
<path fill-rule="evenodd" clip-rule="evenodd" d="M22.5 5.61111C22.5 5.88725 22.7239 6.11111 23 6.11111C23.2761 6.11111 23.5 5.88725 23.5 5.61111V3.44444C23.5 3.1683 23.2761 2.94444 23 2.94444C22.7239 2.94444 22.5 3.1683 22.5 3.44444V5.61111ZM28.2394 18.3578C28.8614 17.3892 29.2222 16.2367 29.2222 15.0001C29.2222 11.5636 26.4364 8.77783 23 8.77783C20.9634 8.77783 19.1553 9.75632 18.0202 11.2688C19.6427 12.4091 20.7591 14.2208 20.9655 16.3003C21.6093 16.105 22.2924 16 23 16C25.0849 16 26.957 16.9115 28.2394 18.3578ZM28.878 19.1973C29.264 19.7927 29.562 20.4505 29.7535 21.1522C29.8411 21.1727 29.9242 21.2171 29.9925 21.2854L31.5246 22.8175C31.7198 23.0127 31.7198 23.3293 31.5246 23.5246C31.3293 23.7198 31.0127 23.7198 30.8175 23.5246L29.9937 22.7008C29.9979 22.8 30 22.8998 30 23C30 26.866 26.866 30 23 30H7C3.13401 30 0 26.866 0 23C0 19.134 3.13401 16 7 16C7.02364 16 7.04725 16.0001 7.07084 16.0004C7.55592 12.6079 10.4734 10 14 10C15.1366 10 16.2099 10.2709 17.1589 10.7516C18.4721 8.94921 20.5992 7.77783 23 7.77783C26.9887 7.77783 30.2222 11.0113 30.2222 15.0001C30.2222 16.5654 29.7242 18.0144 28.878 19.1973ZM35.0556 15C35.0556 15.2761 34.8317 15.5 34.5556 15.5H32.3889C32.1127 15.5 31.8889 15.2761 31.8889 15C31.8889 14.7239 32.1127 14.5 32.3889 14.5H34.5556C34.8317 14.5 35.0556 14.7239 35.0556 15ZM16.0075 8.71461C16.2028 8.90987 16.5193 8.90987 16.7146 8.71461C16.9099 8.51934 16.9099 8.20276 16.7146 8.0075L15.1825 6.47543C14.9873 6.28017 14.6707 6.28017 14.4754 6.47543C14.2802 6.6707 14.2802 6.98728 14.4754 7.18254L16.0075 8.71461ZM29.2854 8.0075C29.0901 8.20276 29.0901 8.51934 29.2854 8.71461C29.4807 8.90987 29.7972 8.90987 29.9925 8.71461L31.5246 7.18254C31.7198 6.98728 31.7198 6.6707 31.5246 6.47544C31.3293 6.28017 31.0127 6.28017 30.8175 6.47544L29.2854 8.0075Z"/>
</mask>
<path d="M28.2394 18.3578L27.4911 19.0212L28.3672 20.0093L29.0808 18.8982L28.2394 18.3578ZM18.0202 11.2688L17.2204 10.6686L16.6011 11.4938L17.4452 12.087L18.0202 11.2688ZM20.9655 16.3003L19.9704 16.399L20.0906 17.6106L21.2557 17.2572L20.9655 16.3003ZM29.7535 21.1522L28.7888 21.4155L28.9456 21.9899L29.5253 22.1258L29.7535 21.1522ZM28.878 19.1973L28.0647 18.6155L27.6683 19.1696L28.0389 19.7413L28.878 19.1973ZM31.5246 22.8175L32.2317 22.1104L32.2317 22.1104L31.5246 22.8175ZM31.5246 23.5246L32.2317 24.2317L32.2317 24.2317L31.5246 23.5246ZM30.8175 23.5246L30.1104 24.2317L30.1104 24.2317L30.8175 23.5246ZM29.9937 22.7008L30.7008 21.9937L28.8868 20.1797L28.9946 22.7428L29.9937 22.7008ZM7.07084 16.0004L7.06093 17.0003L7.93679 17.009L8.06077 16.1419L7.07084 16.0004ZM17.1589 10.7516L16.707 11.6437L17.4661 12.0282L17.9671 11.3405L17.1589 10.7516ZM16.7146 8.71461L17.4217 9.42171L17.4217 9.42171L16.7146 8.71461ZM16.0075 8.71461L15.3004 9.42171L15.3004 9.42171L16.0075 8.71461ZM16.7146 8.0075L17.4217 7.30039L17.4217 7.30039L16.7146 8.0075ZM15.1825 6.47543L14.4754 7.18254L14.4754 7.18254L15.1825 6.47543ZM14.4754 6.47543L15.1825 7.18254L15.1825 7.18254L14.4754 6.47543ZM29.2854 8.0075L29.9925 8.71461L29.9925 8.71461L29.2854 8.0075ZM29.9925 8.71461L30.6996 9.42172L30.6996 9.42171L29.9925 8.71461ZM31.5246 7.18254L30.8175 6.47543L30.8175 6.47544L31.5246 7.18254ZM31.5246 6.47544L32.2317 5.76833L32.2317 5.76833L31.5246 6.47544ZM30.8175 6.47544L30.1104 5.76833L30.1104 5.76833L30.8175 6.47544ZM23 5.11111C23.2761 5.11111 23.5 5.33497 23.5 5.61111H21.5C21.5 6.43954 22.1716 7.11111 23 7.11111V5.11111ZM22.5 5.61111C22.5 5.33497 22.7239 5.11111 23 5.11111V7.11111C23.8284 7.11111 24.5 6.43954 24.5 5.61111H22.5ZM22.5 3.44444V5.61111H24.5V3.44444H22.5ZM23 3.94444C22.7239 3.94444 22.5 3.72059 22.5 3.44444H24.5C24.5 2.61602 23.8284 1.94444 23 1.94444L23 3.94444ZM23.5 3.44444C23.5 3.72059 23.2761 3.94444 23 3.94444L23 1.94444C22.1716 1.94444 21.5 2.61602 21.5 3.44444H23.5ZM23.5 5.61111V3.44444H21.5V5.61111H23.5ZM28.2222 15.0001C28.2222 16.0395 27.9196 17.0052 27.3979 17.8174L29.0808 18.8982C29.8033 17.7731 30.2222 16.434 30.2222 15.0001H28.2222ZM23 9.77783C25.8841 9.77783 28.2222 12.1159 28.2222 15.0001H30.2222C30.2222 11.0113 26.9887 7.77783 23 7.77783V9.77783ZM18.82 11.8691C19.7744 10.5974 21.2913 9.77783 23 9.77783V7.77783C20.6354 7.77783 18.5362 8.91525 17.2204 10.6686L18.82 11.8691ZM21.9606 16.2015C21.7244 13.8223 20.4471 11.7521 18.5952 10.4506L17.4452 12.087C18.8383 13.066 19.7937 14.6193 19.9704 16.399L21.9606 16.2015ZM23 15C22.193 15 21.4121 15.1198 20.6752 15.3433L21.2557 17.2572C21.8065 17.0902 22.3918 17 23 17V15ZM28.9876 17.6944C27.5235 16.0431 25.3829 15 23 15V17C24.787 17 26.3905 17.7799 27.4911 19.0212L28.9876 17.6944ZM30.7182 20.8889C30.4991 20.086 30.1582 19.3338 29.7171 18.6534L28.0389 19.7413C28.3698 20.2517 28.6249 20.815 28.7888 21.4155L30.7182 20.8889ZM30.6996 20.5783C30.4958 20.3745 30.2454 20.2404 29.9817 20.1786L29.5253 22.1258C29.4369 22.1051 29.3526 22.0597 29.2854 21.9925L30.6996 20.5783ZM32.2317 22.1104L30.6996 20.5783L29.2854 21.9925L30.8175 23.5246L32.2317 22.1104ZM32.2317 24.2317C32.8175 23.6459 32.8175 22.6961 32.2317 22.1104L30.8175 23.5246C30.6222 23.3293 30.6222 23.0127 30.8175 22.8175L32.2317 24.2317ZM30.1104 24.2317C30.6961 24.8175 31.6459 24.8175 32.2317 24.2317L30.8175 22.8175C31.0127 22.6222 31.3293 22.6222 31.5246 22.8175L30.1104 24.2317ZM29.2866 23.4079L30.1104 24.2317L31.5246 22.8175L30.7008 21.9937L29.2866 23.4079ZM31 23C31 22.8858 30.9976 22.772 30.9928 22.6588L28.9946 22.7428C28.9982 22.8281 29 22.9138 29 23H31ZM23 31C27.4183 31 31 27.4183 31 23H29C29 26.3137 26.3137 29 23 29V31ZM7 31H23V29H7V31ZM-1 23C-1 27.4183 2.58172 31 7 31V29C3.68629 29 1 26.3137 1 23H-1ZM7 15C2.58172 15 -1 18.5817 -1 23H1C1 19.6863 3.68629 17 7 17V15ZM7.08074 15.0004C7.05392 15.0001 7.027 15 7 15V17C7.02028 17 7.04059 17.0001 7.06093 17.0003L7.08074 15.0004ZM14 9C9.96875 9 6.63542 11.9808 6.08091 15.8588L8.06077 16.1419C8.47642 13.235 10.9781 11 14 11V9ZM17.6108 9.85953C16.5249 9.30949 15.2972 9 14 9V11C14.976 11 15.8948 11.2323 16.707 11.6437L17.6108 9.85953ZM23 6.77783C20.2661 6.77783 17.844 8.11313 16.3507 10.1627L17.9671 11.3405C19.1002 9.7853 20.9324 8.77783 23 8.77783V6.77783ZM31.2222 15.0001C31.2222 10.459 27.541 6.77783 23 6.77783V8.77783C26.4364 8.77783 29.2222 11.5636 29.2222 15.0001H31.2222ZM29.6914 19.7791C30.6549 18.4321 31.2222 16.7809 31.2222 15.0001H29.2222C29.2222 16.3499 28.7935 17.5967 28.0647 18.6155L29.6914 19.7791ZM34.5556 16.5C35.384 16.5 36.0556 15.8284 36.0556 15H34.0556C34.0556 14.7239 34.2794 14.5 34.5556 14.5V16.5ZM32.3889 16.5H34.5556V14.5H32.3889V16.5ZM30.8889 15C30.8889 15.8284 31.5605 16.5 32.3889 16.5V14.5C32.665 14.5 32.8889 14.7239 32.8889 15H30.8889ZM32.3889 13.5C31.5605 13.5 30.8889 14.1716 30.8889 15H32.8889C32.8889 15.2761 32.665 15.5 32.3889 15.5V13.5ZM34.5556 13.5H32.3889V15.5H34.5556V13.5ZM36.0556 15C36.0556 14.1716 35.384 13.5 34.5556 13.5V15.5C34.2794 15.5 34.0556 15.2761 34.0556 15H36.0556ZM16.0075 8.0075C16.2028 7.81224 16.5193 7.81224 16.7146 8.0075L15.3004 9.42171C15.8862 10.0075 16.8359 10.0075 17.4217 9.42171L16.0075 8.0075ZM16.0075 8.7146C15.8122 8.51934 15.8122 8.20276 16.0075 8.0075L17.4217 9.42171C18.0075 8.83593 18.0075 7.88618 17.4217 7.30039L16.0075 8.7146ZM14.4754 7.18254L16.0075 8.71461L17.4217 7.30039L15.8896 5.76833L14.4754 7.18254ZM15.1825 7.18254C14.9873 7.3778 14.6707 7.3778 14.4754 7.18254L15.8896 5.76833C15.3039 5.18254 14.3541 5.18254 13.7683 5.76833L15.1825 7.18254ZM15.1825 6.47543C15.3778 6.6707 15.3778 6.98728 15.1825 7.18254L13.7683 5.76833C13.1825 6.35411 13.1825 7.30386 13.7683 7.88965L15.1825 6.47543ZM16.7146 8.0075L15.1825 6.47543L13.7683 7.88965L15.3004 9.42171L16.7146 8.0075ZM29.9925 8.0075C30.1878 8.20276 30.1878 8.51935 29.9925 8.71461L28.5783 7.30039C27.9925 7.88618 27.9925 8.83593 28.5783 9.42172L29.9925 8.0075ZM29.2854 8.0075C29.4807 7.81224 29.7972 7.81224 29.9925 8.0075L28.5783 9.42172C29.1641 10.0075 30.1138 10.0075 30.6996 9.42172L29.2854 8.0075ZM30.8175 6.47544L29.2854 8.0075L30.6996 9.42171L32.2317 7.88965L30.8175 6.47544ZM30.8175 7.18254C30.6222 6.98728 30.6222 6.6707 30.8175 6.47543L32.2317 7.88965C32.8175 7.30386 32.8175 6.35411 32.2317 5.76833L30.8175 7.18254ZM31.5246 7.18254C31.3293 7.3778 31.0127 7.3778 30.8175 7.18254L32.2317 5.76833C31.6459 5.18254 30.6961 5.18254 30.1104 5.76833L31.5246 7.18254ZM29.9925 8.71461L31.5246 7.18254L30.1104 5.76833L28.5783 7.30039L29.9925 8.71461Z" fill="#1F1F1F" mask="url(#path-1-inside-1_197_2209)"/>
</svg>
