<svg width="32" height="32" viewBox="0 0 32 32" fill="none" xmlns="http://www.w3.org/2000/svg">
<circle cx="16" cy="16" r="13.5" stroke="#1F1F1F"/>
<mask id="path-2-inside-1_197_2064" fill="white">
<path d="M20.5499 10.4001C21.5164 10.4001 22.2999 11.1836 22.2999 12.1501C22.2999 13.1166 21.5164 13.9001 20.5499 13.9001C19.5834 13.9001 18.7999 13.1166 18.7999 12.1501C18.7999 11.1836 19.5834 10.4001 20.5499 10.4001Z"/>
</mask>
<path d="M20.5499 11.4001C20.9641 11.4001 21.2999 11.7359 21.2999 12.1501L23.2999 12.1501C23.2999 10.6313 22.0687 9.40009 20.5499 9.40009L20.5499 11.4001ZM21.2999 12.1501C21.2999 12.5644 20.9641 12.9001 20.5499 12.9001L20.5499 14.9001C22.0687 14.9001 23.2999 13.6689 23.2999 12.1501L21.2999 12.1501ZM20.5499 12.9001C20.1357 12.9001 19.7999 12.5644 19.7999 12.1501L17.7999 12.1501C17.7999 13.6689 19.0311 14.9001 20.5499 14.9001L20.5499 12.9001ZM19.7999 12.1501C19.7999 11.7359 20.1357 11.4001 20.5499 11.4001L20.5499 9.40009C19.0311 9.40009 17.7999 10.6313 17.7999 12.1501L19.7999 12.1501Z" fill="#1F1F1F" mask="url(#path-2-inside-1_197_2064)"/>
<mask id="path-4-inside-2_197_2064" fill="white">
<path d="M11.45 10.4001C12.4165 10.4001 13.2 11.1836 13.2 12.1501C13.2 13.1166 12.4165 13.9001 11.45 13.9001C10.4835 13.9001 9.70007 13.1166 9.70007 12.1501C9.70007 11.1836 10.4835 10.4001 11.45 10.4001Z"/>
</mask>
<path d="M11.45 11.4001C11.8642 11.4001 12.2 11.7358 12.2 12.1501L14.2 12.1501C14.2 10.6314 12.9688 9.40009 11.45 9.40009L11.45 11.4001ZM12.2 12.1501C12.2 12.5644 11.8642 12.9001 11.45 12.9001L11.45 14.9001C12.9688 14.9001 14.2 13.6689 14.2 12.1501L12.2 12.1501ZM11.45 12.9001C11.0359 12.9001 10.7001 12.5644 10.7001 12.1501L8.70007 12.1501C8.70007 13.6689 9.93122 14.9001 11.45 14.9001L11.45 12.9001ZM10.7001 12.1501C10.7001 11.7358 11.0359 11.4001 11.45 11.4001L11.45 9.40009C9.93122 9.40009 8.70007 10.6314 8.70007 12.1501L10.7001 12.1501Z" fill="#1F1F1F" mask="url(#path-4-inside-2_197_2064)"/>
<path d="M8.13307 17.0681C7.72474 17.7754 7.18378 17.9345 6.51021 17.5457C5.83663 17.1568 5.70401 16.6087 6.11235 15.9014C6.56338 15.1202 8.14354 14.7166 8.14354 14.7166C8.14354 14.7166 8.5841 16.2869 8.13307 17.0681Z" fill="#1F1F1F"/>
<path d="M26.0416 15.9015C26.4499 16.6088 26.3173 17.1568 25.6437 17.5457C24.9701 17.9346 24.4292 17.7754 24.0208 17.0682C23.5698 16.287 24.0104 14.7167 24.0104 14.7167C24.0104 14.7167 25.5905 15.1203 26.0416 15.9015Z" fill="#1F1F1F"/>
<path d="M10.4 22.3C11.0008 21.3667 12.9747 19.5 16.0644 19.5C19.154 19.5 21.0422 21.3667 21.6 22.3" stroke="#1F1F1F" stroke-linecap="round" stroke-linejoin="round"/>
</svg>
