<svg width="36" height="36" viewBox="0 0 36 36" fill="none" xmlns="http://www.w3.org/2000/svg">
<circle cx="18" cy="18" r="14.5" stroke="#1F1F1F"/>
<mask id="path-2-inside-1_197_2064" fill="white">
<path d="M22.8749 12.0002C23.9104 12.0002 24.7499 12.8397 24.7499 13.8752C24.7499 14.9108 23.9104 15.7502 22.8749 15.7502C21.8393 15.7502 20.9999 14.9108 20.9999 13.8752C20.9999 12.8397 21.8393 12.0002 22.8749 12.0002Z"/>
</mask>
<path d="M22.8749 13.0002C23.3581 13.0002 23.7499 13.3919 23.7499 13.8752L25.7499 13.8752C25.7499 12.2874 24.4627 11.0002 22.8749 11.0002L22.8749 13.0002ZM23.7499 13.8752C23.7499 14.3585 23.3581 14.7502 22.8749 14.7502L22.8749 16.7502C24.4627 16.7502 25.7499 15.463 25.7499 13.8752L23.7499 13.8752ZM22.8749 14.7502C22.3916 14.7502 21.9999 14.3585 21.9999 13.8752L19.9999 13.8752C19.9999 15.463 21.287 16.7502 22.8749 16.7502L22.8749 14.7502ZM21.9999 13.8752C21.9999 13.3919 22.3916 13.0002 22.8749 13.0002L22.8749 11.0002C21.287 11.0002 19.9999 12.2874 19.9999 13.8752L21.9999 13.8752Z" fill="#1F1F1F" mask="url(#path-2-inside-1_197_2064)"/>
<mask id="path-4-inside-2_197_2064" fill="white">
<path d="M13.1251 12.0002C14.1606 12.0002 15 12.8397 15 13.8752C15 14.9108 14.1606 15.7502 13.1251 15.7502C12.0896 15.7502 11.2501 14.9108 11.2501 13.8752C11.2501 12.8397 12.0896 12.0002 13.1251 12.0002Z"/>
</mask>
<path d="M13.1251 13.0002C13.6082 13.0002 14 13.3919 14 13.8752L16 13.8752C16 12.2874 14.7129 11.0002 13.1251 11.0002L13.1251 13.0002ZM14 13.8752C14 14.3585 13.6082 14.7502 13.1251 14.7502L13.1251 16.7502C14.7129 16.7502 16 15.463 16 13.8752L14 13.8752ZM13.1251 14.7502C12.6419 14.7502 12.2501 14.3585 12.2501 13.8752L10.2501 13.8752C10.2501 15.463 11.5372 16.7502 13.1251 16.7502L13.1251 14.7502ZM12.2501 13.8752C12.2501 13.3919 12.6419 13.0002 13.1251 13.0002L13.1251 11.0002C11.5372 11.0002 10.2501 12.2874 10.2501 13.8752L12.2501 13.8752Z" fill="#1F1F1F" mask="url(#path-4-inside-2_197_2064)"/>
<path d="M9.57119 19.1444C9.13369 19.9022 8.5541 20.0728 7.83241 19.6561C7.11072 19.2394 6.96863 18.6522 7.40613 17.8944C7.88938 17.0574 9.58241 16.625 9.58241 16.625C9.58241 16.625 10.0544 18.3074 9.57119 19.1444Z" fill="#1F1F1F"/>
<path d="M28.7588 17.8944C29.1963 18.6522 29.0542 19.2394 28.3325 19.6561C27.6108 20.0728 27.0312 19.9022 26.5938 19.1444C26.1105 18.3074 26.5825 16.625 26.5825 16.625C26.5825 16.625 28.2756 17.0574 28.7588 17.8944Z" fill="#1F1F1F"/>
<path d="M12 24.75C12.6437 23.75 14.7586 21.75 18.069 21.75C21.3793 21.75 23.4023 23.75 24 24.75" stroke="#1F1F1F" stroke-linecap="round" stroke-linejoin="round"/>
</svg>
