<svg width="36" height="36" viewBox="0 0 36 36" fill="none" xmlns="http://www.w3.org/2000/svg">
<path d="M18 2L18.0006 34" stroke="#1F1F1F" stroke-linecap="round"/>
<path d="M16 4L18 6L20 4" stroke="#1F1F1F" stroke-linecap="round" stroke-linejoin="round"/>
<path d="M14 7L18 11L22 7" stroke="#1F1F1F" stroke-linecap="round" stroke-linejoin="round"/>
<path d="M20 32L18 30L16 32" stroke="#1F1F1F" stroke-linecap="round" stroke-linejoin="round"/>
<path d="M22 29L18 25L14 29" stroke="#1F1F1F" stroke-linecap="round" stroke-linejoin="round"/>
<path d="M31.8564 26L4.14331 10.0006" stroke="#1F1F1F" stroke-linecap="round"/>
<path d="M31.1244 23.2678L28.3923 23.9999L29.1244 26.7319" stroke="#1F1F1F" stroke-linecap="round" stroke-linejoin="round"/>
<path d="M29.5264 20.0359L24.0623 21.5L25.5264 26.9641" stroke="#1F1F1F" stroke-linecap="round" stroke-linejoin="round"/>
<path d="M4.87573 12.7319L7.60778 11.9999L6.87573 9.26783" stroke="#1F1F1F" stroke-linecap="round" stroke-linejoin="round"/>
<path d="M6.47375 15.9641L11.9379 14.5L10.4738 9.03591" stroke="#1F1F1F" stroke-linecap="round" stroke-linejoin="round"/>
<path d="M31.8564 10L4.14395 26.0006" stroke="#1F1F1F" stroke-linecap="round"/>
<path d="M29.1244 9.26782L28.3923 11.9999L31.1244 12.7319" stroke="#1F1F1F" stroke-linecap="round" stroke-linejoin="round"/>
<path d="M25.5264 9.03589L24.0623 14.5L29.5264 15.9641" stroke="#1F1F1F" stroke-linecap="round" stroke-linejoin="round"/>
<path d="M6.87573 26.7319L7.60778 23.9999L4.87573 23.2678" stroke="#1F1F1F" stroke-linecap="round" stroke-linejoin="round"/>
<path d="M10.4738 26.9641L11.9379 21.5L6.47376 20.0359" stroke="#1F1F1F" stroke-linecap="round" stroke-linejoin="round"/>
<path d="M12 14.5L18 11L24 14.5V21.5L18 25L12 21.5V14.5Z" stroke="#1F1F1F" stroke-linecap="round" stroke-linejoin="round"/>
<path d="M14.5 16L18 14L21.5 16V20L18 22L14.5 20V16Z" stroke="#1F1F1F" stroke-linecap="round" stroke-linejoin="round"/>
</svg>
