<svg width="36" height="36" viewBox="0 0 36 36" fill="none" xmlns="http://www.w3.org/2000/svg">
<path d="M11.0001 27V28.5" stroke="#1F1F1F" stroke-linecap="round"/>
<path d="M11.6495 28.125L10.3505 27.375" stroke="#1F1F1F" stroke-linecap="round"/>
<path d="M11.6497 27.375L10.3506 28.125" stroke="#1F1F1F" stroke-linecap="round"/>
<path d="M17.6495 27V28.5" stroke="#1F1F1F" stroke-linecap="round"/>
<path d="M18.299 28.125L16.9999 27.375" stroke="#1F1F1F" stroke-linecap="round"/>
<path d="M18.2991 27.375L17 28.125" stroke="#1F1F1F" stroke-linecap="round"/>
<path d="M13.6495 31V32.5" stroke="#1F1F1F" stroke-linecap="round"/>
<path d="M14.299 32.125L12.9999 31.375" stroke="#1F1F1F" stroke-linecap="round"/>
<path d="M14.2991 31.375L13 32.125" stroke="#1F1F1F" stroke-linecap="round"/>
<path d="M20.299 31V32.5" stroke="#1F1F1F" stroke-linecap="round"/>
<path d="M20.9484 32.125L19.6493 31.375" stroke="#1F1F1F" stroke-linecap="round"/>
<path d="M20.9485 31.375L19.6494 32.125" stroke="#1F1F1F" stroke-linecap="round"/>
<path d="M24.299 27V28.5" stroke="#1F1F1F" stroke-linecap="round"/>
<path d="M24.9484 28.125L23.6493 27.375" stroke="#1F1F1F" stroke-linecap="round"/>
<path d="M24.9485 27.375L23.6494 28.125" stroke="#1F1F1F" stroke-linecap="round"/>
<mask id="path-16-inside-1_197_2207" fill="white">
<path fill-rule="evenodd" clip-rule="evenodd" d="M3 18C3 21.866 6.13401 25 10 25H26C29.866 25 33 21.866 33 18C33 14.134 29.866 11 26 11C25.2924 11 24.6093 11.105 23.9655 11.3003C23.6144 7.76281 20.6298 5 17 5C13.4734 5 10.5559 7.60789 10.0708 11.0004C10.0473 11.0001 10.0236 11 10 11C6.13401 11 3 14.134 3 18Z"/>
</mask>
<path d="M23.9655 11.3003L22.9704 11.399L23.0906 12.6106L24.2557 12.2572L23.9655 11.3003ZM10.0708 11.0004L10.0609 12.0003L10.9368 12.009L11.0608 11.1419L10.0708 11.0004ZM10 24C6.68629 24 4 21.3137 4 18H2C2 22.4183 5.58172 26 10 26V24ZM26 24H10V26H26V24ZM32 18C32 21.3137 29.3137 24 26 24V26C30.4183 26 34 22.4183 34 18H32ZM26 12C29.3137 12 32 14.6863 32 18H34C34 13.5817 30.4183 10 26 10V12ZM24.2557 12.2572C24.8065 12.0902 25.3918 12 26 12V10C25.193 10 24.4121 10.1198 23.6752 10.3433L24.2557 12.2572ZM17 6C20.1107 6 22.6695 8.36799 22.9704 11.399L24.9606 11.2015C24.5592 7.15763 21.149 4 17 4V6ZM11.0608 11.1419C11.4764 8.23501 13.9781 6 17 6V4C12.9687 4 9.63542 6.98077 9.08091 10.8588L11.0608 11.1419ZM10 12C10.0203 12 10.0406 12.0001 10.0609 12.0003L10.0807 10.0004C10.0539 10.0001 10.027 10 10 10V12ZM4 18C4 14.6863 6.68629 12 10 12V10C5.58172 10 2 13.5817 2 18H4Z" fill="#1F1F1F" mask="url(#path-16-inside-1_197_2207)"/>
</svg>
