<svg width="36" height="36" viewBox="0 0 36 36" fill="none" xmlns="http://www.w3.org/2000/svg">
<circle cx="18" cy="18" r="14.5" stroke="#1F1F1F"/>
<path fill-rule="evenodd" clip-rule="evenodd" d="M20.4616 24.8864C20.495 25.1388 20.5774 25.389 20.7126 25.6231C21.2649 26.5797 22.4881 26.9075 23.4447 26.3552C24.4013 25.8029 24.729 24.5797 24.1767 23.6231C23.9994 23.3161 23.753 23.0738 23.4685 22.9046C23.2163 23.1713 22.9463 23.4192 22.6612 23.6468C22.9253 23.7055 23.1648 23.8704 23.3107 24.1231C23.5869 24.6014 23.423 25.213 22.9447 25.4892C22.4664 25.7653 21.8548 25.6014 21.5787 25.1231C21.454 24.9072 21.419 24.6641 21.4621 24.437C21.1399 24.6095 20.8055 24.7599 20.4616 24.8864Z" fill="#1F1F1F"/>
<path d="M23.7142 22.2857C23.1012 23.2381 21.087 25.1428 17.9343 25.1428C14.7816 25.1428 12.8549 23.2381 12.2857 22.2857" stroke="#1F1F1F" stroke-linecap="round" stroke-linejoin="round"/>
<path d="M20.8572 15.1428C21.0487 14.9047 21.6782 14.4285 22.6634 14.4285C23.6486 14.4285 24.2507 14.9047 24.4286 15.1428" stroke="#1F1F1F" stroke-linecap="round" stroke-linejoin="round"/>
<path d="M11.5714 15.1428C11.763 14.9047 12.3924 14.4285 13.3777 14.4285C14.3629 14.4285 14.965 14.9047 15.1428 15.1428" stroke="#1F1F1F" stroke-linecap="round" stroke-linejoin="round"/>
</svg>
