<svg width="32" height="32" viewBox="0 0 32 32" fill="none" xmlns="http://www.w3.org/2000/svg">
<circle cx="16" cy="16" r="13.5" stroke="#1F1F1F"/>
<path fill-rule="evenodd" clip-rule="evenodd" d="M18.2975 22.4274C18.3286 22.663 18.4056 22.8964 18.5318 23.115C19.0472 24.0078 20.1889 24.3137 21.0817 23.7982C21.9745 23.2828 22.2804 22.1411 21.7649 21.2483C21.5995 20.9617 21.3695 20.7356 21.1039 20.5777C20.8481 20.8482 20.5729 21.0979 20.281 21.3252C20.5313 21.3641 20.7624 21.5119 20.8989 21.7483C21.1382 22.1628 20.9962 22.6929 20.5817 22.9322C20.1672 23.1715 19.6371 23.0295 19.3978 22.615C19.2797 22.4104 19.2545 22.1777 19.309 21.9657C18.9844 22.1446 18.6462 22.2991 18.2975 22.4274Z" fill="#1F1F1F"/>
<path d="M21.3334 20.0001C20.7612 20.889 18.8813 22.6667 15.9387 22.6667C12.9962 22.6667 11.198 20.889 10.6667 20.0001" stroke="#1F1F1F" stroke-linecap="round" stroke-linejoin="round"/>
<path d="M18.6666 13.3334C18.8454 13.1112 19.4329 12.6667 20.3525 12.6667C21.272 12.6667 21.8339 13.1112 22 13.3334" stroke="#1F1F1F" stroke-linecap="round" stroke-linejoin="round"/>
<path d="M10 13.3334C10.1788 13.1112 10.7663 12.6667 11.6858 12.6667C12.6054 12.6667 13.1673 13.1112 13.3333 13.3334" stroke="#1F1F1F" stroke-linecap="round" stroke-linejoin="round"/>
</svg>
