<svg xmlns="http://www.w3.org/2000/svg" viewBox="0 0 100 100" preserveAspectRatio="xMidYMid" width="200" height="200" style="shape-rendering: auto; display: block; background: transparent;" xmlns:xlink="http://www.w3.org/1999/xlink"><g><g transform="rotate(0 50 50)">
  <rect fill="#00757e" height="10" width="10" ry="5" rx="5" y="2" x="45">
    <animate repeatCount="indefinite" begin="-0.99s" dur="1s" keyTimes="0;1" values="1;0" attributeName="opacity"></animate>
  </rect>
</g><g transform="rotate(3.6 50 50)">
  <rect fill="#00757e" height="10" width="10" ry="5" rx="5" y="2" x="45">
    <animate repeatCount="indefinite" begin="-0.98s" dur="1s" keyTimes="0;1" values="1;0" attributeName="opacity"></animate>
  </rect>
</g><g transform="rotate(7.2 50 50)">
  <rect fill="#00757e" height="10" width="10" ry="5" rx="5" y="2" x="45">
    <animate repeatCount="indefinite" begin="-0.97s" dur="1s" keyTimes="0;1" values="1;0" attributeName="opacity"></animate>
  </rect>
</g><g transform="rotate(10.8 50 50)">
  <rect fill="#00757e" height="10" width="10" ry="5" rx="5" y="2" x="45">
    <animate repeatCount="indefinite" begin="-0.96s" dur="1s" keyTimes="0;1" values="1;0" attributeName="opacity"></animate>
  </rect>
</g><g transform="rotate(14.4 50 50)">
  <rect fill="#00757e" height="10" width="10" ry="5" rx="5" y="2" x="45">
    <animate repeatCount="indefinite" begin="-0.95s" dur="1s" keyTimes="0;1" values="1;0" attributeName="opacity"></animate>
  </rect>
</g><g transform="rotate(18 50 50)">
  <rect fill="#00757e" height="10" width="10" ry="5" rx="5" y="2" x="45">
    <animate repeatCount="indefinite" begin="-0.94s" dur="1s" keyTimes="0;1" values="1;0" attributeName="opacity"></animate>
  </rect>
</g><g transform="rotate(21.6 50 50)">
  <rect fill="#00757e" height="10" width="10" ry="5" rx="5" y="2" x="45">
    <animate repeatCount="indefinite" begin="-0.93s" dur="1s" keyTimes="0;1" values="1;0" attributeName="opacity"></animate>
  </rect>
</g><g transform="rotate(25.2 50 50)">
  <rect fill="#00757e" height="10" width="10" ry="5" rx="5" y="2" x="45">
    <animate repeatCount="indefinite" begin="-0.92s" dur="1s" keyTimes="0;1" values="1;0" attributeName="opacity"></animate>
  </rect>
</g><g transform="rotate(28.8 50 50)">
  <rect fill="#00757e" height="10" width="10" ry="5" rx="5" y="2" x="45">
    <animate repeatCount="indefinite" begin="-0.91s" dur="1s" keyTimes="0;1" values="1;0" attributeName="opacity"></animate>
  </rect>
</g><g transform="rotate(32.4 50 50)">
  <rect fill="#00757e" height="10" width="10" ry="5" rx="5" y="2" x="45">
    <animate repeatCount="indefinite" begin="-0.9s" dur="1s" keyTimes="0;1" values="1;0" attributeName="opacity"></animate>
  </rect>
</g><g transform="rotate(36 50 50)">
  <rect fill="#00757e" height="10" width="10" ry="5" rx="5" y="2" x="45">
    <animate repeatCount="indefinite" begin="-0.89s" dur="1s" keyTimes="0;1" values="1;0" attributeName="opacity"></animate>
  </rect>
</g><g transform="rotate(39.6 50 50)">
  <rect fill="#00757e" height="10" width="10" ry="5" rx="5" y="2" x="45">
    <animate repeatCount="indefinite" begin="-0.88s" dur="1s" keyTimes="0;1" values="1;0" attributeName="opacity"></animate>
  </rect>
</g><g transform="rotate(43.2 50 50)">
  <rect fill="#00757e" height="10" width="10" ry="5" rx="5" y="2" x="45">
    <animate repeatCount="indefinite" begin="-0.87s" dur="1s" keyTimes="0;1" values="1;0" attributeName="opacity"></animate>
  </rect>
</g><g transform="rotate(46.8 50 50)">
  <rect fill="#00757e" height="10" width="10" ry="5" rx="5" y="2" x="45">
    <animate repeatCount="indefinite" begin="-0.86s" dur="1s" keyTimes="0;1" values="1;0" attributeName="opacity"></animate>
  </rect>
</g><g transform="rotate(50.4 50 50)">
  <rect fill="#00757e" height="10" width="10" ry="5" rx="5" y="2" x="45">
    <animate repeatCount="indefinite" begin="-0.85s" dur="1s" keyTimes="0;1" values="1;0" attributeName="opacity"></animate>
  </rect>
</g><g transform="rotate(54 50 50)">
  <rect fill="#00757e" height="10" width="10" ry="5" rx="5" y="2" x="45">
    <animate repeatCount="indefinite" begin="-0.84s" dur="1s" keyTimes="0;1" values="1;0" attributeName="opacity"></animate>
  </rect>
</g><g transform="rotate(57.6 50 50)">
  <rect fill="#00757e" height="10" width="10" ry="5" rx="5" y="2" x="45">
    <animate repeatCount="indefinite" begin="-0.83s" dur="1s" keyTimes="0;1" values="1;0" attributeName="opacity"></animate>
  </rect>
</g><g transform="rotate(61.2 50 50)">
  <rect fill="#00757e" height="10" width="10" ry="5" rx="5" y="2" x="45">
    <animate repeatCount="indefinite" begin="-0.82s" dur="1s" keyTimes="0;1" values="1;0" attributeName="opacity"></animate>
  </rect>
</g><g transform="rotate(64.8 50 50)">
  <rect fill="#00757e" height="10" width="10" ry="5" rx="5" y="2" x="45">
    <animate repeatCount="indefinite" begin="-0.81s" dur="1s" keyTimes="0;1" values="1;0" attributeName="opacity"></animate>
  </rect>
</g><g transform="rotate(68.4 50 50)">
  <rect fill="#00757e" height="10" width="10" ry="5" rx="5" y="2" x="45">
    <animate repeatCount="indefinite" begin="-0.8s" dur="1s" keyTimes="0;1" values="1;0" attributeName="opacity"></animate>
  </rect>
</g><g transform="rotate(72 50 50)">
  <rect fill="#00757e" height="10" width="10" ry="5" rx="5" y="2" x="45">
    <animate repeatCount="indefinite" begin="-0.79s" dur="1s" keyTimes="0;1" values="1;0" attributeName="opacity"></animate>
  </rect>
</g><g transform="rotate(75.6 50 50)">
  <rect fill="#00757e" height="10" width="10" ry="5" rx="5" y="2" x="45">
    <animate repeatCount="indefinite" begin="-0.78s" dur="1s" keyTimes="0;1" values="1;0" attributeName="opacity"></animate>
  </rect>
</g><g transform="rotate(79.2 50 50)">
  <rect fill="#00757e" height="10" width="10" ry="5" rx="5" y="2" x="45">
    <animate repeatCount="indefinite" begin="-0.77s" dur="1s" keyTimes="0;1" values="1;0" attributeName="opacity"></animate>
  </rect>
</g><g transform="rotate(82.8 50 50)">
  <rect fill="#00757e" height="10" width="10" ry="5" rx="5" y="2" x="45">
    <animate repeatCount="indefinite" begin="-0.76s" dur="1s" keyTimes="0;1" values="1;0" attributeName="opacity"></animate>
  </rect>
</g><g transform="rotate(86.4 50 50)">
  <rect fill="#00757e" height="10" width="10" ry="5" rx="5" y="2" x="45">
    <animate repeatCount="indefinite" begin="-0.75s" dur="1s" keyTimes="0;1" values="1;0" attributeName="opacity"></animate>
  </rect>
</g><g transform="rotate(90 50 50)">
  <rect fill="#00757e" height="10" width="10" ry="5" rx="5" y="2" x="45">
    <animate repeatCount="indefinite" begin="-0.74s" dur="1s" keyTimes="0;1" values="1;0" attributeName="opacity"></animate>
  </rect>
</g><g transform="rotate(93.6 50 50)">
  <rect fill="#00757e" height="10" width="10" ry="5" rx="5" y="2" x="45">
    <animate repeatCount="indefinite" begin="-0.73s" dur="1s" keyTimes="0;1" values="1;0" attributeName="opacity"></animate>
  </rect>
</g><g transform="rotate(97.2 50 50)">
  <rect fill="#00757e" height="10" width="10" ry="5" rx="5" y="2" x="45">
    <animate repeatCount="indefinite" begin="-0.72s" dur="1s" keyTimes="0;1" values="1;0" attributeName="opacity"></animate>
  </rect>
</g><g transform="rotate(100.8 50 50)">
  <rect fill="#00757e" height="10" width="10" ry="5" rx="5" y="2" x="45">
    <animate repeatCount="indefinite" begin="-0.71s" dur="1s" keyTimes="0;1" values="1;0" attributeName="opacity"></animate>
  </rect>
</g><g transform="rotate(104.4 50 50)">
  <rect fill="#00757e" height="10" width="10" ry="5" rx="5" y="2" x="45">
    <animate repeatCount="indefinite" begin="-0.7s" dur="1s" keyTimes="0;1" values="1;0" attributeName="opacity"></animate>
  </rect>
</g><g transform="rotate(108 50 50)">
  <rect fill="#00757e" height="10" width="10" ry="5" rx="5" y="2" x="45">
    <animate repeatCount="indefinite" begin="-0.69s" dur="1s" keyTimes="0;1" values="1;0" attributeName="opacity"></animate>
  </rect>
</g><g transform="rotate(111.6 50 50)">
  <rect fill="#00757e" height="10" width="10" ry="5" rx="5" y="2" x="45">
    <animate repeatCount="indefinite" begin="-0.68s" dur="1s" keyTimes="0;1" values="1;0" attributeName="opacity"></animate>
  </rect>
</g><g transform="rotate(115.2 50 50)">
  <rect fill="#00757e" height="10" width="10" ry="5" rx="5" y="2" x="45">
    <animate repeatCount="indefinite" begin="-0.67s" dur="1s" keyTimes="0;1" values="1;0" attributeName="opacity"></animate>
  </rect>
</g><g transform="rotate(118.8 50 50)">
  <rect fill="#00757e" height="10" width="10" ry="5" rx="5" y="2" x="45">
    <animate repeatCount="indefinite" begin="-0.66s" dur="1s" keyTimes="0;1" values="1;0" attributeName="opacity"></animate>
  </rect>
</g><g transform="rotate(122.4 50 50)">
  <rect fill="#00757e" height="10" width="10" ry="5" rx="5" y="2" x="45">
    <animate repeatCount="indefinite" begin="-0.65s" dur="1s" keyTimes="0;1" values="1;0" attributeName="opacity"></animate>
  </rect>
</g><g transform="rotate(126 50 50)">
  <rect fill="#00757e" height="10" width="10" ry="5" rx="5" y="2" x="45">
    <animate repeatCount="indefinite" begin="-0.64s" dur="1s" keyTimes="0;1" values="1;0" attributeName="opacity"></animate>
  </rect>
</g><g transform="rotate(129.6 50 50)">
  <rect fill="#00757e" height="10" width="10" ry="5" rx="5" y="2" x="45">
    <animate repeatCount="indefinite" begin="-0.63s" dur="1s" keyTimes="0;1" values="1;0" attributeName="opacity"></animate>
  </rect>
</g><g transform="rotate(133.2 50 50)">
  <rect fill="#00757e" height="10" width="10" ry="5" rx="5" y="2" x="45">
    <animate repeatCount="indefinite" begin="-0.62s" dur="1s" keyTimes="0;1" values="1;0" attributeName="opacity"></animate>
  </rect>
</g><g transform="rotate(136.8 50 50)">
  <rect fill="#00757e" height="10" width="10" ry="5" rx="5" y="2" x="45">
    <animate repeatCount="indefinite" begin="-0.61s" dur="1s" keyTimes="0;1" values="1;0" attributeName="opacity"></animate>
  </rect>
</g><g transform="rotate(140.4 50 50)">
  <rect fill="#00757e" height="10" width="10" ry="5" rx="5" y="2" x="45">
    <animate repeatCount="indefinite" begin="-0.6s" dur="1s" keyTimes="0;1" values="1;0" attributeName="opacity"></animate>
  </rect>
</g><g transform="rotate(144 50 50)">
  <rect fill="#00757e" height="10" width="10" ry="5" rx="5" y="2" x="45">
    <animate repeatCount="indefinite" begin="-0.59s" dur="1s" keyTimes="0;1" values="1;0" attributeName="opacity"></animate>
  </rect>
</g><g transform="rotate(147.6 50 50)">
  <rect fill="#00757e" height="10" width="10" ry="5" rx="5" y="2" x="45">
    <animate repeatCount="indefinite" begin="-0.58s" dur="1s" keyTimes="0;1" values="1;0" attributeName="opacity"></animate>
  </rect>
</g><g transform="rotate(151.2 50 50)">
  <rect fill="#00757e" height="10" width="10" ry="5" rx="5" y="2" x="45">
    <animate repeatCount="indefinite" begin="-0.57s" dur="1s" keyTimes="0;1" values="1;0" attributeName="opacity"></animate>
  </rect>
</g><g transform="rotate(154.8 50 50)">
  <rect fill="#00757e" height="10" width="10" ry="5" rx="5" y="2" x="45">
    <animate repeatCount="indefinite" begin="-0.56s" dur="1s" keyTimes="0;1" values="1;0" attributeName="opacity"></animate>
  </rect>
</g><g transform="rotate(158.4 50 50)">
  <rect fill="#00757e" height="10" width="10" ry="5" rx="5" y="2" x="45">
    <animate repeatCount="indefinite" begin="-0.55s" dur="1s" keyTimes="0;1" values="1;0" attributeName="opacity"></animate>
  </rect>
</g><g transform="rotate(162 50 50)">
  <rect fill="#00757e" height="10" width="10" ry="5" rx="5" y="2" x="45">
    <animate repeatCount="indefinite" begin="-0.54s" dur="1s" keyTimes="0;1" values="1;0" attributeName="opacity"></animate>
  </rect>
</g><g transform="rotate(165.6 50 50)">
  <rect fill="#00757e" height="10" width="10" ry="5" rx="5" y="2" x="45">
    <animate repeatCount="indefinite" begin="-0.53s" dur="1s" keyTimes="0;1" values="1;0" attributeName="opacity"></animate>
  </rect>
</g><g transform="rotate(169.2 50 50)">
  <rect fill="#00757e" height="10" width="10" ry="5" rx="5" y="2" x="45">
    <animate repeatCount="indefinite" begin="-0.52s" dur="1s" keyTimes="0;1" values="1;0" attributeName="opacity"></animate>
  </rect>
</g><g transform="rotate(172.8 50 50)">
  <rect fill="#00757e" height="10" width="10" ry="5" rx="5" y="2" x="45">
    <animate repeatCount="indefinite" begin="-0.51s" dur="1s" keyTimes="0;1" values="1;0" attributeName="opacity"></animate>
  </rect>
</g><g transform="rotate(176.4 50 50)">
  <rect fill="#00757e" height="10" width="10" ry="5" rx="5" y="2" x="45">
    <animate repeatCount="indefinite" begin="-0.5s" dur="1s" keyTimes="0;1" values="1;0" attributeName="opacity"></animate>
  </rect>
</g><g transform="rotate(180 50 50)">
  <rect fill="#00757e" height="10" width="10" ry="5" rx="5" y="2" x="45">
    <animate repeatCount="indefinite" begin="-0.49s" dur="1s" keyTimes="0;1" values="1;0" attributeName="opacity"></animate>
  </rect>
</g><g transform="rotate(183.6 50 50)">
  <rect fill="#00757e" height="10" width="10" ry="5" rx="5" y="2" x="45">
    <animate repeatCount="indefinite" begin="-0.48s" dur="1s" keyTimes="0;1" values="1;0" attributeName="opacity"></animate>
  </rect>
</g><g transform="rotate(187.2 50 50)">
  <rect fill="#00757e" height="10" width="10" ry="5" rx="5" y="2" x="45">
    <animate repeatCount="indefinite" begin="-0.47s" dur="1s" keyTimes="0;1" values="1;0" attributeName="opacity"></animate>
  </rect>
</g><g transform="rotate(190.8 50 50)">
  <rect fill="#00757e" height="10" width="10" ry="5" rx="5" y="2" x="45">
    <animate repeatCount="indefinite" begin="-0.46s" dur="1s" keyTimes="0;1" values="1;0" attributeName="opacity"></animate>
  </rect>
</g><g transform="rotate(194.4 50 50)">
  <rect fill="#00757e" height="10" width="10" ry="5" rx="5" y="2" x="45">
    <animate repeatCount="indefinite" begin="-0.45s" dur="1s" keyTimes="0;1" values="1;0" attributeName="opacity"></animate>
  </rect>
</g><g transform="rotate(198 50 50)">
  <rect fill="#00757e" height="10" width="10" ry="5" rx="5" y="2" x="45">
    <animate repeatCount="indefinite" begin="-0.44s" dur="1s" keyTimes="0;1" values="1;0" attributeName="opacity"></animate>
  </rect>
</g><g transform="rotate(201.6 50 50)">
  <rect fill="#00757e" height="10" width="10" ry="5" rx="5" y="2" x="45">
    <animate repeatCount="indefinite" begin="-0.43s" dur="1s" keyTimes="0;1" values="1;0" attributeName="opacity"></animate>
  </rect>
</g><g transform="rotate(205.2 50 50)">
  <rect fill="#00757e" height="10" width="10" ry="5" rx="5" y="2" x="45">
    <animate repeatCount="indefinite" begin="-0.42s" dur="1s" keyTimes="0;1" values="1;0" attributeName="opacity"></animate>
  </rect>
</g><g transform="rotate(208.8 50 50)">
  <rect fill="#00757e" height="10" width="10" ry="5" rx="5" y="2" x="45">
    <animate repeatCount="indefinite" begin="-0.41s" dur="1s" keyTimes="0;1" values="1;0" attributeName="opacity"></animate>
  </rect>
</g><g transform="rotate(212.4 50 50)">
  <rect fill="#00757e" height="10" width="10" ry="5" rx="5" y="2" x="45">
    <animate repeatCount="indefinite" begin="-0.4s" dur="1s" keyTimes="0;1" values="1;0" attributeName="opacity"></animate>
  </rect>
</g><g transform="rotate(216 50 50)">
  <rect fill="#00757e" height="10" width="10" ry="5" rx="5" y="2" x="45">
    <animate repeatCount="indefinite" begin="-0.39s" dur="1s" keyTimes="0;1" values="1;0" attributeName="opacity"></animate>
  </rect>
</g><g transform="rotate(219.6 50 50)">
  <rect fill="#00757e" height="10" width="10" ry="5" rx="5" y="2" x="45">
    <animate repeatCount="indefinite" begin="-0.38s" dur="1s" keyTimes="0;1" values="1;0" attributeName="opacity"></animate>
  </rect>
</g><g transform="rotate(223.2 50 50)">
  <rect fill="#00757e" height="10" width="10" ry="5" rx="5" y="2" x="45">
    <animate repeatCount="indefinite" begin="-0.37s" dur="1s" keyTimes="0;1" values="1;0" attributeName="opacity"></animate>
  </rect>
</g><g transform="rotate(226.8 50 50)">
  <rect fill="#00757e" height="10" width="10" ry="5" rx="5" y="2" x="45">
    <animate repeatCount="indefinite" begin="-0.36s" dur="1s" keyTimes="0;1" values="1;0" attributeName="opacity"></animate>
  </rect>
</g><g transform="rotate(230.4 50 50)">
  <rect fill="#00757e" height="10" width="10" ry="5" rx="5" y="2" x="45">
    <animate repeatCount="indefinite" begin="-0.35s" dur="1s" keyTimes="0;1" values="1;0" attributeName="opacity"></animate>
  </rect>
</g><g transform="rotate(234 50 50)">
  <rect fill="#00757e" height="10" width="10" ry="5" rx="5" y="2" x="45">
    <animate repeatCount="indefinite" begin="-0.34s" dur="1s" keyTimes="0;1" values="1;0" attributeName="opacity"></animate>
  </rect>
</g><g transform="rotate(237.6 50 50)">
  <rect fill="#00757e" height="10" width="10" ry="5" rx="5" y="2" x="45">
    <animate repeatCount="indefinite" begin="-0.33s" dur="1s" keyTimes="0;1" values="1;0" attributeName="opacity"></animate>
  </rect>
</g><g transform="rotate(241.2 50 50)">
  <rect fill="#00757e" height="10" width="10" ry="5" rx="5" y="2" x="45">
    <animate repeatCount="indefinite" begin="-0.32s" dur="1s" keyTimes="0;1" values="1;0" attributeName="opacity"></animate>
  </rect>
</g><g transform="rotate(244.8 50 50)">
  <rect fill="#00757e" height="10" width="10" ry="5" rx="5" y="2" x="45">
    <animate repeatCount="indefinite" begin="-0.31s" dur="1s" keyTimes="0;1" values="1;0" attributeName="opacity"></animate>
  </rect>
</g><g transform="rotate(248.4 50 50)">
  <rect fill="#00757e" height="10" width="10" ry="5" rx="5" y="2" x="45">
    <animate repeatCount="indefinite" begin="-0.3s" dur="1s" keyTimes="0;1" values="1;0" attributeName="opacity"></animate>
  </rect>
</g><g transform="rotate(252 50 50)">
  <rect fill="#00757e" height="10" width="10" ry="5" rx="5" y="2" x="45">
    <animate repeatCount="indefinite" begin="-0.29s" dur="1s" keyTimes="0;1" values="1;0" attributeName="opacity"></animate>
  </rect>
</g><g transform="rotate(255.6 50 50)">
  <rect fill="#00757e" height="10" width="10" ry="5" rx="5" y="2" x="45">
    <animate repeatCount="indefinite" begin="-0.28s" dur="1s" keyTimes="0;1" values="1;0" attributeName="opacity"></animate>
  </rect>
</g><g transform="rotate(259.2 50 50)">
  <rect fill="#00757e" height="10" width="10" ry="5" rx="5" y="2" x="45">
    <animate repeatCount="indefinite" begin="-0.27s" dur="1s" keyTimes="0;1" values="1;0" attributeName="opacity"></animate>
  </rect>
</g><g transform="rotate(262.8 50 50)">
  <rect fill="#00757e" height="10" width="10" ry="5" rx="5" y="2" x="45">
    <animate repeatCount="indefinite" begin="-0.26s" dur="1s" keyTimes="0;1" values="1;0" attributeName="opacity"></animate>
  </rect>
</g><g transform="rotate(266.4 50 50)">
  <rect fill="#00757e" height="10" width="10" ry="5" rx="5" y="2" x="45">
    <animate repeatCount="indefinite" begin="-0.25s" dur="1s" keyTimes="0;1" values="1;0" attributeName="opacity"></animate>
  </rect>
</g><g transform="rotate(270 50 50)">
  <rect fill="#00757e" height="10" width="10" ry="5" rx="5" y="2" x="45">
    <animate repeatCount="indefinite" begin="-0.24s" dur="1s" keyTimes="0;1" values="1;0" attributeName="opacity"></animate>
  </rect>
</g><g transform="rotate(273.6 50 50)">
  <rect fill="#00757e" height="10" width="10" ry="5" rx="5" y="2" x="45">
    <animate repeatCount="indefinite" begin="-0.23s" dur="1s" keyTimes="0;1" values="1;0" attributeName="opacity"></animate>
  </rect>
</g><g transform="rotate(277.2 50 50)">
  <rect fill="#00757e" height="10" width="10" ry="5" rx="5" y="2" x="45">
    <animate repeatCount="indefinite" begin="-0.22s" dur="1s" keyTimes="0;1" values="1;0" attributeName="opacity"></animate>
  </rect>
</g><g transform="rotate(280.8 50 50)">
  <rect fill="#00757e" height="10" width="10" ry="5" rx="5" y="2" x="45">
    <animate repeatCount="indefinite" begin="-0.21s" dur="1s" keyTimes="0;1" values="1;0" attributeName="opacity"></animate>
  </rect>
</g><g transform="rotate(284.4 50 50)">
  <rect fill="#00757e" height="10" width="10" ry="5" rx="5" y="2" x="45">
    <animate repeatCount="indefinite" begin="-0.2s" dur="1s" keyTimes="0;1" values="1;0" attributeName="opacity"></animate>
  </rect>
</g><g transform="rotate(288 50 50)">
  <rect fill="#00757e" height="10" width="10" ry="5" rx="5" y="2" x="45">
    <animate repeatCount="indefinite" begin="-0.19s" dur="1s" keyTimes="0;1" values="1;0" attributeName="opacity"></animate>
  </rect>
</g><g transform="rotate(291.6 50 50)">
  <rect fill="#00757e" height="10" width="10" ry="5" rx="5" y="2" x="45">
    <animate repeatCount="indefinite" begin="-0.18s" dur="1s" keyTimes="0;1" values="1;0" attributeName="opacity"></animate>
  </rect>
</g><g transform="rotate(295.2 50 50)">
  <rect fill="#00757e" height="10" width="10" ry="5" rx="5" y="2" x="45">
    <animate repeatCount="indefinite" begin="-0.17s" dur="1s" keyTimes="0;1" values="1;0" attributeName="opacity"></animate>
  </rect>
</g><g transform="rotate(298.8 50 50)">
  <rect fill="#00757e" height="10" width="10" ry="5" rx="5" y="2" x="45">
    <animate repeatCount="indefinite" begin="-0.16s" dur="1s" keyTimes="0;1" values="1;0" attributeName="opacity"></animate>
  </rect>
</g><g transform="rotate(302.4 50 50)">
  <rect fill="#00757e" height="10" width="10" ry="5" rx="5" y="2" x="45">
    <animate repeatCount="indefinite" begin="-0.15s" dur="1s" keyTimes="0;1" values="1;0" attributeName="opacity"></animate>
  </rect>
</g><g transform="rotate(306 50 50)">
  <rect fill="#00757e" height="10" width="10" ry="5" rx="5" y="2" x="45">
    <animate repeatCount="indefinite" begin="-0.14s" dur="1s" keyTimes="0;1" values="1;0" attributeName="opacity"></animate>
  </rect>
</g><g transform="rotate(309.6 50 50)">
  <rect fill="#00757e" height="10" width="10" ry="5" rx="5" y="2" x="45">
    <animate repeatCount="indefinite" begin="-0.13s" dur="1s" keyTimes="0;1" values="1;0" attributeName="opacity"></animate>
  </rect>
</g><g transform="rotate(313.2 50 50)">
  <rect fill="#00757e" height="10" width="10" ry="5" rx="5" y="2" x="45">
    <animate repeatCount="indefinite" begin="-0.12s" dur="1s" keyTimes="0;1" values="1;0" attributeName="opacity"></animate>
  </rect>
</g><g transform="rotate(316.8 50 50)">
  <rect fill="#00757e" height="10" width="10" ry="5" rx="5" y="2" x="45">
    <animate repeatCount="indefinite" begin="-0.11s" dur="1s" keyTimes="0;1" values="1;0" attributeName="opacity"></animate>
  </rect>
</g><g transform="rotate(320.4 50 50)">
  <rect fill="#00757e" height="10" width="10" ry="5" rx="5" y="2" x="45">
    <animate repeatCount="indefinite" begin="-0.1s" dur="1s" keyTimes="0;1" values="1;0" attributeName="opacity"></animate>
  </rect>
</g><g transform="rotate(324 50 50)">
  <rect fill="#00757e" height="10" width="10" ry="5" rx="5" y="2" x="45">
    <animate repeatCount="indefinite" begin="-0.09s" dur="1s" keyTimes="0;1" values="1;0" attributeName="opacity"></animate>
  </rect>
</g><g transform="rotate(327.6 50 50)">
  <rect fill="#00757e" height="10" width="10" ry="5" rx="5" y="2" x="45">
    <animate repeatCount="indefinite" begin="-0.08s" dur="1s" keyTimes="0;1" values="1;0" attributeName="opacity"></animate>
  </rect>
</g><g transform="rotate(331.2 50 50)">
  <rect fill="#00757e" height="10" width="10" ry="5" rx="5" y="2" x="45">
    <animate repeatCount="indefinite" begin="-0.07s" dur="1s" keyTimes="0;1" values="1;0" attributeName="opacity"></animate>
  </rect>
</g><g transform="rotate(334.8 50 50)">
  <rect fill="#00757e" height="10" width="10" ry="5" rx="5" y="2" x="45">
    <animate repeatCount="indefinite" begin="-0.06s" dur="1s" keyTimes="0;1" values="1;0" attributeName="opacity"></animate>
  </rect>
</g><g transform="rotate(338.4 50 50)">
  <rect fill="#00757e" height="10" width="10" ry="5" rx="5" y="2" x="45">
    <animate repeatCount="indefinite" begin="-0.05s" dur="1s" keyTimes="0;1" values="1;0" attributeName="opacity"></animate>
  </rect>
</g><g transform="rotate(342 50 50)">
  <rect fill="#00757e" height="10" width="10" ry="5" rx="5" y="2" x="45">
    <animate repeatCount="indefinite" begin="-0.04s" dur="1s" keyTimes="0;1" values="1;0" attributeName="opacity"></animate>
  </rect>
</g><g transform="rotate(345.6 50 50)">
  <rect fill="#00757e" height="10" width="10" ry="5" rx="5" y="2" x="45">
    <animate repeatCount="indefinite" begin="-0.03s" dur="1s" keyTimes="0;1" values="1;0" attributeName="opacity"></animate>
  </rect>
</g><g transform="rotate(349.2 50 50)">
  <rect fill="#00757e" height="10" width="10" ry="5" rx="5" y="2" x="45">
    <animate repeatCount="indefinite" begin="-0.02s" dur="1s" keyTimes="0;1" values="1;0" attributeName="opacity"></animate>
  </rect>
</g><g transform="rotate(352.8 50 50)">
  <rect fill="#00757e" height="10" width="10" ry="5" rx="5" y="2" x="45">
    <animate repeatCount="indefinite" begin="-0.01s" dur="1s" keyTimes="0;1" values="1;0" attributeName="opacity"></animate>
  </rect>
</g><g transform="rotate(356.4 50 50)">
  <rect fill="#00757e" height="10" width="10" ry="5" rx="5" y="2" x="45">
    <animate repeatCount="indefinite" begin="0s" dur="1s" keyTimes="0;1" values="1;0" attributeName="opacity"></animate>
  </rect>
</g><g></g></g><!-- [ldio] generated by https://loading.io --></svg>