<svg width="196" height="32" viewBox="0 0 196 32" fill="none" xmlns="http://www.w3.org/2000/svg">
<path fill-rule="evenodd" clip-rule="evenodd" d="M196 0.000860777C195.93 0.000316011 195.859 4.36294e-05 195.788 4.36332e-05C192.25 4.38238e-05 189.332 0.667617 187.034 2.00276C184.766 3.30888 183.073 5.15197 181.954 7.53201C180.865 9.91205 180.321 12.713 180.321 15.9347C180.321 18.3438 180.623 20.5352 181.228 22.5089C181.863 24.4826 182.8 26.1805 184.04 27.6027C185.31 28.9959 186.913 30.0844 188.848 30.868C190.814 31.6227 193.112 32 195.743 32C195.829 32 195.915 31.9996 196 31.9988L196 26.4683L196 5.48742L196 0.000860777ZM167.471 15.9782C167.471 18.3873 167.153 20.5787 166.518 22.5524C165.913 24.497 164.976 26.1805 163.706 27.6027C162.466 29.0249 160.863 30.1133 158.898 30.868C156.962 31.6226 154.679 32 152.049 32C149.418 32 147.12 31.6226 145.154 30.868C143.219 30.0843 141.616 28.9959 140.346 27.6027C139.106 26.1805 138.169 24.4825 137.534 22.5088C136.929 20.5351 136.627 18.3437 136.627 15.9347C136.627 12.7129 137.171 9.91201 138.259 7.53196C139.378 5.15192 141.072 3.30884 143.34 2.00272C145.638 0.667574 148.556 7.14205e-07 152.094 5.23575e-07C155.602 3.34574e-07 158.49 0.667573 160.757 2.00272C163.025 3.30884 164.704 5.16643 165.792 7.5755C166.911 9.95554 167.471 12.7564 167.471 15.9782ZM96.1274 8.79734L103.285 31.1652L109.069 31.1652L116.726 8.83729L116.893 8.83729L116.768 11.2338C116.74 12.2723 116.698 13.3774 116.643 14.5491C116.615 15.7207 116.601 16.7592 116.601 17.6646L116.601 31.1652L122.469 31.1652L122.469 2.64619L113.896 2.64619L106.448 24.4548L106.323 24.4548L99.29 2.64619L90.7176 2.64619L90.7176 31.1652L96.3354 31.1652L96.3354 17.9042C96.3354 16.919 96.3077 15.8272 96.2522 14.629C96.1967 13.404 96.1412 12.259 96.0858 11.1939L95.9609 8.79734L96.1274 8.79734ZM5.40974 8.79734L12.5673 31.1652L18.3516 31.1652L26.0085 8.83729L26.1749 8.83729L26.0501 11.2338C26.0224 12.2723 25.9807 13.3774 25.9253 14.5491C25.8975 15.7207 25.8836 16.7592 25.8836 17.6646L25.8836 31.1652L31.7512 31.1652L31.7512 2.64619L23.1788 2.64619L15.7299 24.4548L15.6051 24.4548L8.57239 2.64619L3.15555e-08 2.64619L3.71641e-07 31.1652L5.61783 31.1652L5.61783 17.9042C5.61783 16.919 5.59009 15.8272 5.53459 14.629C5.47911 13.404 5.42361 12.259 5.36813 11.1939L5.2433 8.79734L5.40974 8.79734ZM76.7529 15.9782C76.7529 18.3873 76.4354 20.5787 75.8004 22.5524C75.1956 24.497 74.2582 26.1805 72.9882 27.6027C71.7483 29.0249 70.1457 30.1133 68.1801 30.868C66.2448 31.6226 63.9618 32 61.3309 32C58.7001 32 56.4019 31.6226 54.4364 30.868C52.5011 30.0843 50.8984 28.9959 49.6284 27.6027C48.3886 26.1805 47.4511 24.4825 46.8161 22.5088C46.2113 20.5351 45.9089 18.3437 45.9089 15.9347C45.9089 12.7129 46.4532 9.91201 47.5419 7.53196C48.6607 5.15192 50.3541 3.30884 52.622 2.00272C54.9202 0.667575 57.8383 1.796e-06 61.3763 1.60537e-06C64.884 1.41637e-06 67.7719 0.667574 70.0398 2.00272C72.3078 3.30884 73.986 5.16643 75.0746 7.5755C76.1935 9.95554 76.7529 12.7564 76.7529 15.9782Z" fill="#121212"/>
</svg>
