<svg width="64" height="376" viewBox="0 0 64 376" fill="none" xmlns="http://www.w3.org/2000/svg">
<path fill-rule="evenodd" clip-rule="evenodd" d="M63.9983 376C63.9994 375.865 63.9999 375.73 63.9999 375.594C63.9999 368.807 62.6648 363.209 59.9945 358.8C57.3822 354.449 53.6961 351.201 48.936 349.054C44.1759 346.966 38.5741 345.922 32.1306 345.922C27.3124 345.922 22.9297 346.502 18.9823 347.662C15.0349 348.88 11.639 350.678 8.79453 353.057C6.00814 355.493 3.83127 358.568 2.26393 362.28C0.754631 366.051 -1.50827e-05 370.46 -1.52431e-05 375.507C-1.52484e-05 375.672 0.000797277 375.836 0.00241089 376L11.0634 376L53.0252 376L63.9983 376ZM32.0436 321.27C27.2254 321.27 22.8427 320.661 18.8953 319.443C15.0059 318.283 11.6391 316.484 8.79462 314.048C5.95018 311.669 3.77332 308.595 2.26402 304.824C0.754721 301.112 7.49989e-05 296.732 7.51593e-05 291.685C7.53197e-05 286.638 0.754722 282.229 2.26402 278.459C3.83136 274.746 6.00823 271.672 8.79462 269.235C11.6391 266.857 15.035 265.058 18.9824 263.84C22.9297 262.68 27.3125 262.1 32.1307 262.1C38.5742 262.1 44.176 263.144 48.9361 265.232C53.6962 267.379 57.3823 270.627 59.9946 274.978C62.6649 279.387 64 284.985 64 291.772C64 298.501 62.6649 304.041 59.9946 308.392C57.3823 312.743 53.6671 315.962 48.849 318.05C44.0889 320.197 38.4871 321.27 32.0436 321.27ZM46.4053 184.408L1.66967 198.138L1.66967 209.235L46.3254 223.924L46.3254 224.243L41.5323 224.003C39.4553 223.95 37.2452 223.87 34.9019 223.764C32.5586 223.711 30.4816 223.684 28.6708 223.684L1.66967 223.684L1.66967 234.94L58.7076 234.94L58.7076 218.495L15.0904 204.206L15.0904 203.966L58.7076 190.475L58.7076 174.03L1.66967 174.03L1.66967 184.807L28.1915 184.807C30.162 184.807 32.3455 184.754 34.7421 184.647C37.1919 184.541 39.4819 184.434 41.6122 184.328L46.4053 184.088L46.4053 184.408ZM46.4053 10.3779L1.66967 24.1087L1.66967 35.2051L46.3254 49.8938L46.3254 50.2131L41.5323 49.9737C39.4553 49.9204 37.2452 49.8406 34.9019 49.7342C32.5586 49.6809 30.4816 49.6543 28.6708 49.6543L1.66967 49.6543L1.66967 60.9104L58.7076 60.9104L58.7076 44.4654L15.0904 30.1758L15.0904 29.9363L58.7076 16.445L58.7076 -1.68226e-07L1.66967 -1.98126e-06L1.66967 10.7771L28.1915 10.7771C30.162 10.7771 32.3455 10.7239 34.7421 10.6174C37.1919 10.511 39.4819 10.4045 41.6122 10.2981L46.4053 10.0586L46.4053 10.3779ZM32.0436 147.24C27.2254 147.24 22.8427 146.631 18.8953 145.413C15.006 144.253 11.6391 142.455 8.79463 140.018C5.95018 137.64 3.77332 134.565 2.26402 130.795C0.754727 127.082 8.05307e-05 122.702 8.06911e-05 117.655C8.08515e-05 112.608 0.754727 108.2 2.26402 104.429C3.83137 100.716 6.00823 97.6418 8.79463 95.2054C11.6391 92.827 15.035 91.0287 18.9824 89.8105C22.9298 88.6503 27.3125 88.0702 32.1307 88.0702C38.5742 88.0702 44.176 89.1144 48.9361 91.2028C53.6962 93.3491 57.3823 96.5977 59.9946 100.948C62.6649 105.357 64 110.955 64 117.742C64 124.471 62.6649 130.011 59.9946 134.362C57.3823 138.713 53.6671 141.932 48.849 144.021C44.0889 146.167 38.4871 147.24 32.0436 147.24Z" fill="#121212"/>
</svg>
