<svg width="18" height="4" viewBox="0 0 18 4" fill="none" xmlns="http://www.w3.org/2000/svg">
<g id="Group 13">
<path id="Ellipse 5" d="M18 2C18 2.82843 17.3284 3.5 16.5 3.5C15.6716 3.5 15 2.82843 15 2C15 1.17157 15.6716 0.5 16.5 0.5C17.3284 0.5 18 1.17157 18 2Z" fill="#F8F8F8"/>
<path id="Ellipse 6" d="M10.5 2C10.5 2.82843 9.82843 3.5 9 3.5C8.17157 3.5 7.5 2.82843 7.5 2C7.5 1.17157 8.17157 0.5 9 0.5C9.82843 0.5 10.5 1.17157 10.5 2Z" fill="#F8F8F8"/>
<path id="Ellipse 7" d="M3 2C3 2.82843 2.32843 3.5 1.5 3.5C0.671573 3.5 0 2.82843 0 2C0 1.17157 0.671573 0.5 1.5 0.5C2.32843 0.5 3 1.17157 3 2Z" fill="#F8F8F8"/>
</g>
</svg>
