<svg width="20" height="20" viewBox="0 0 20 20" fill="none" xmlns="http://www.w3.org/2000/svg">
<path d="M19 10C19 10.8284 18.3284 11.5 17.5 11.5C16.6716 11.5 16 10.8284 16 10C16 9.17157 16.6716 8.5 17.5 8.5C18.3284 8.5 19 9.17157 19 10Z" fill="#101010"/>
<path d="M11.5 10C11.5 10.8284 10.8284 11.5 10 11.5C9.17157 11.5 8.5 10.8284 8.5 10C8.5 9.17157 9.17157 8.5 10 8.5C10.8284 8.5 11.5 9.17157 11.5 10Z" fill="#101010"/>
<path d="M4 10C4 10.8284 3.32843 11.5 2.5 11.5C1.67157 11.5 1 10.8284 1 10C1 9.17157 1.67157 8.5 2.5 8.5C3.32843 8.5 4 9.17157 4 10Z" fill="#101010"/>
</svg>
