<svg width="24" height="24" viewBox="0 0 24 24" fill="none" xmlns="http://www.w3.org/2000/svg">
<path fill-rule="evenodd" clip-rule="evenodd" d="M12 9C13.6571 9 15 10.3429 15 12C15 13.6571 13.6571 15 12 15C10.3429 15 9 13.6571 9 12C9 10.3429 10.3429 9 12 9Z" stroke="#1F1F1F" stroke-linecap="round" stroke-linejoin="round"/>
<path fill-rule="evenodd" clip-rule="evenodd" d="M20.6485 7.00026C19.9248 5.74525 18.3225 5.31583 17.0702 6.04055C15.981 6.66961 14.6197 5.88251 14.6197 4.62335C14.6197 3.17494 13.4463 2 11.9998 2C10.5533 2 9.37991 3.17494 9.37991 4.62335C9.37991 5.88251 8.01859 6.66961 6.93035 6.04055C5.67702 5.31583 4.07478 5.74525 3.35103 7.00026C2.62831 8.25526 3.05717 9.85963 4.3105 10.5833C5.39873 11.2134 5.39873 12.7866 4.3105 13.4167C3.05717 14.1414 2.62831 15.7458 3.35103 16.9998C4.07478 18.2547 5.67702 18.6842 6.92931 17.9605C8.01755 17.3304 9.37991 18.1175 9.37991 19.3766C9.37991 20.8251 10.5533 22 11.9998 22C13.4463 22 14.6197 20.8251 14.6197 19.3766C14.6197 18.1175 15.981 17.3304 17.0702 17.9605C18.3225 18.6842 19.9248 18.2547 20.6485 16.9998C21.3722 15.7458 20.9423 14.1414 19.6901 13.4167C18.6019 12.7866 18.6008 11.2134 19.6901 10.5833C20.9423 9.85963 21.3722 8.25526 20.6485 7.00026Z" stroke="#1F1F1F" stroke-linecap="round" stroke-linejoin="round"/>
</svg>
