<svg width="20" height="20" viewBox="0 0 20 20" fill="none" xmlns="http://www.w3.org/2000/svg">
<path d="M7 11.5L11.5 14" stroke="black"/>
<path d="M7 8.5L11.5 6" stroke="black"/>
<path d="M11 15.5C11 13.8431 12.3431 12.5 14 12.5C15.6569 12.5 17 13.8431 17 15.5C17 17.1569 15.6569 18.5 14 18.5C12.3431 18.5 11 17.1569 11 15.5Z" stroke="#1F1F1F"/>
<path d="M11 4.5C11 2.84315 12.3431 1.5 14 1.5C15.6569 1.5 17 2.84315 17 4.5C17 6.15685 15.6569 7.5 14 7.5C12.3431 7.5 11 6.15685 11 4.5Z" stroke="#1F1F1F"/>
<path d="M1.5 10C1.5 8.34315 2.84315 7 4.5 7C6.15685 7 7.5 8.34315 7.5 10C7.5 11.6569 6.15685 13 4.5 13C2.84315 13 1.5 11.6569 1.5 10Z" stroke="#1F1F1F"/>
</svg>
